<?xml version="1.0" encoding="utf-8"?>
<!-- Generator: Adobe Illustrator 27.8.1, SVG Export Plug-In . SVG Version: 6.00 Build 0)  -->
<svg version="1.1" xmlns="http://www.w3.org/2000/svg" xmlns:xlink="http://www.w3.org/1999/xlink" x="0px" y="0px"
	 viewBox="0 0 800 800" style="enable-background:new 0 0 800 800;" xml:space="preserve">
<style type="text/css">
	.st0{fill:none;}
</style>
<g id="Layer_1">
	<g>
		<g>
			<g>
				
					<image style="overflow:visible;enable-background:new    ;" width="676" height="581" xlink:href="86C3826C.png"  transform="matrix(0.9983 0 0 0.9983 62.5818 128.7429)">
				</image>
			</g>
		</g>
	</g>
</g>
<g id="Layer_2">
	<g>
		<g>
			
				<image style="overflow:visible;" width="645" height="531" xlink:href="86C38263.png"  transform="matrix(1 0 0 1 84.3479 131.9492)">
			</image>
		</g>
	</g>
	<g>
		<g>
			
				<image style="overflow:visible;" width="512" height="452" xlink:href="86C38264.png"  transform="matrix(0.3457 0 0 0.3457 303.5276 308.614)">
			</image>
		</g>
	</g>
	<g>
		<path class="st0" d="M312.3,357.4c-0.2,10.1,6.8,10.4,18,10.5c11.2-0.1,18.2-0.5,18-10.5c0.2-9.8-6.8-25.6-18-25.5
			C319.1,331.8,312.1,347.6,312.3,357.4z"/>
	</g>
	<rect x="417.7" y="235.5" class="st0" width="312" height="333.6"/>
	
		<rect x="311.3" y="405.5" transform="matrix(0.992 -0.1263 0.1263 0.992 -49.49 54.6042)" class="st0" width="188.9" height="24.1"/>
	<g>
		<path d="M315.2,373c-0.8-0.3-1.5-0.8-2-1.5c-0.6-0.7-0.9-1.6-1.1-2.6c-0.1-0.9,0-1.8,0.3-2.7c0.3-0.9,0.9-1.6,1.7-2.2
			c0.8-0.6,1.7-1,2.9-1.2c0.6-0.1,1.2-0.1,1.6,0s0.8,0.2,1,0.4c0.2,0.2,0.4,0.4,0.4,0.7c0,0.3-0.1,0.6-0.4,0.9
			c-0.3,0.3-0.8,0.5-1.4,0.5c0.1-0.3,0.1-0.7,0.1-1.1c-0.1-0.4-0.2-0.7-0.4-0.9c-0.2-0.2-0.5-0.3-0.9-0.3c-0.5,0.1-1,0.4-1.4,0.9
			c-0.4,0.5-0.7,1.1-0.8,1.9c-0.2,0.7-0.2,1.5-0.1,2.2c0.1,0.8,0.3,1.4,0.6,2c0.3,0.6,0.8,1.1,1.3,1.4c0.6,0.3,1.2,0.4,2,0.3
			c0.5-0.1,0.9-0.2,1.4-0.5c0.4-0.2,0.8-0.6,1.1-0.9c-0.2,0.8-0.6,1.4-1.2,1.9c-0.6,0.5-1.4,0.8-2.2,0.9
			C316.8,373.4,315.9,373.3,315.2,373z"/>
		<path d="M322.7,372.2c-0.6-0.2-0.9-0.6-0.9-1.2c-0.1-0.5,0-0.9,0.3-1.3c0.3-0.4,0.6-0.7,1-0.9s0.9-0.5,1.6-0.8
			c0.7-0.3,1.3-0.6,1.6-0.9c0.3-0.3,0.5-0.6,0.4-0.9c-0.1-0.5-0.2-0.8-0.4-1c-0.2-0.2-0.5-0.3-0.7-0.3c-0.3,0-0.5,0.2-0.7,0.5
			c-0.2,0.3-0.2,0.7-0.2,1.2c0,0.3,0.1,0.5,0.2,0.7c-0.6,0.1-1.1,0-1.5-0.1c-0.4-0.2-0.6-0.4-0.6-0.7c0-0.2,0-0.5,0.2-0.7
			c0.2-0.2,0.5-0.5,0.9-0.7s0.9-0.3,1.5-0.4c0.6-0.1,1.3-0.1,1.9,0.1c0.6,0.2,1.1,0.5,1.5,0.9c0.4,0.5,0.7,1.1,0.8,1.9l0,0.1
			c0.1,1.1,0.2,1.8,0.3,2.2c0.1,0.4,0.2,1,0.4,1.8c-0.6-0.1-1.3-0.2-2-0.1c-0.5,0.1-0.9,0.1-1.2,0.3c-0.4,0.1-0.6,0.2-0.6,0.2
			c-0.4,0.1-0.7,0.2-0.9,0.3c-0.3,0.1-0.6,0.1-1,0.2C323.9,372.5,323.3,372.4,322.7,372.2z M326.5,371.5c0.2-0.2,0.4-0.5,0.5-1
			c0.1-0.4,0.1-1,0-1.6l-0.3-2c0,0.2-0.1,0.3-0.2,0.5c-0.1,0.2-0.4,0.4-0.7,0.8c-0.5,0.5-0.9,1-1.1,1.4c-0.3,0.4-0.3,0.9-0.3,1.4
			c0,0.3,0.2,0.5,0.4,0.7c0.2,0.1,0.5,0.2,0.8,0.2C326,371.8,326.2,371.7,326.5,371.5z"/>
		<path d="M337.7,370.5c-0.4,0-0.7-0.1-0.9-0.4c-0.2-0.2-0.4-0.7-0.4-1.3l-0.5-3.6c-0.1-0.4-0.2-0.7-0.3-0.9
			c-0.2-0.2-0.3-0.3-0.6-0.3c-0.2,0-0.5,0.2-0.7,0.5c-0.2,0.3-0.4,0.7-0.6,1.2c0,0.6,0.2,1.4,0.3,2.6c0.1,0.5,0.2,1,0.3,1.6
			s0.3,0.8,0.4,1l-3.4,0.5c0.1-0.2,0.1-0.5,0.1-1.1c0-0.5,0-1.1-0.1-1.6l-0.2-1.5c-0.1-0.6-0.2-1.1-0.3-1.5
			c-0.1-0.4-0.2-0.7-0.4-0.8c1.5-0.2,2.6-0.6,3.1-1.2c0,0.6,0,1.1,0.1,1.4c0.2-0.5,0.6-0.9,1-1.2c0.4-0.3,0.8-0.5,1.3-0.5
			c0.7-0.1,1.2,0,1.7,0.4s0.8,0.8,0.9,1.5l0.4,3.1c0.1,0.5,0.2,0.9,0.3,1.3c0.1,0.4,0.2,0.7,0.4,0.8
			C338.7,370.5,338.1,370.6,337.7,370.5z"/>
		<path d="M345.3,368.5c0-0.5,0-1.1-0.1-1.6l-0.6-4.9c-0.1-0.5-0.2-1.1-0.3-1.6s-0.3-0.9-0.4-1c0.5,0,1.1,0,1.7-0.1
			c0.6-0.1,1.2-0.2,1.7-0.4c-0.1,0.2-0.1,0.5-0.1,1.1c0,0.5,0,1.1,0.1,1.6l0.6,4.9c0.1,0.5,0.2,1.1,0.3,1.6c0.1,0.5,0.3,0.9,0.4,1
			l-3.4,0.5C345.2,369.4,345.3,369,345.3,368.5z"/>
		<path d="M356.5,367.5c-0.8-0.3-1.5-0.8-2-1.5c-0.6-0.7-0.9-1.6-1.1-2.6c-0.1-0.9,0-1.8,0.3-2.7c0.3-0.9,0.9-1.6,1.7-2.2
			s1.7-1,2.9-1.2c0.6-0.1,1.2-0.1,1.6,0s0.8,0.2,1,0.4c0.2,0.2,0.4,0.4,0.4,0.7c0,0.3-0.1,0.6-0.4,0.9c-0.3,0.3-0.8,0.5-1.4,0.5
			c0.1-0.3,0.1-0.7,0.1-1.1c0-0.4-0.2-0.7-0.4-0.9c-0.2-0.2-0.5-0.3-0.9-0.3c-0.5,0.1-1,0.4-1.4,0.9c-0.4,0.5-0.7,1.1-0.8,1.9
			c-0.2,0.7-0.2,1.5-0.1,2.2c0.1,0.8,0.3,1.4,0.6,2c0.3,0.6,0.8,1.1,1.3,1.4s1.2,0.4,2,0.3c0.5-0.1,0.9-0.2,1.4-0.5
			c0.4-0.2,0.8-0.6,1.1-0.9c-0.2,0.8-0.6,1.4-1.2,1.9c-0.6,0.5-1.4,0.8-2.2,0.9C358.1,367.9,357.3,367.8,356.5,367.5z"/>
		<path d="M364.1,366.7c-0.6-0.2-0.9-0.6-0.9-1.2c-0.1-0.5,0-0.9,0.3-1.3c0.3-0.4,0.6-0.7,1-0.9c0.4-0.2,0.9-0.5,1.6-0.8
			c0.7-0.3,1.3-0.6,1.6-0.9c0.3-0.3,0.5-0.6,0.4-0.9c-0.1-0.5-0.2-0.8-0.4-1c-0.2-0.2-0.5-0.3-0.7-0.3c-0.3,0-0.5,0.2-0.7,0.5
			c-0.2,0.3-0.2,0.7-0.2,1.2c0,0.3,0.1,0.5,0.2,0.7c-0.6,0.1-1.1,0-1.5-0.1s-0.6-0.4-0.6-0.7c0-0.2,0-0.5,0.2-0.7
			c0.2-0.2,0.5-0.5,0.9-0.7c0.4-0.2,0.9-0.3,1.5-0.4c0.6-0.1,1.3-0.1,1.9,0.1c0.6,0.2,1.1,0.5,1.5,0.9c0.4,0.5,0.7,1.1,0.8,1.9
			l0,0.1c0.1,1.1,0.2,1.8,0.3,2.2c0.1,0.4,0.2,1,0.4,1.8c-0.6-0.1-1.3-0.2-2-0.1c-0.5,0.1-0.9,0.1-1.2,0.3s-0.6,0.2-0.6,0.2
			c-0.4,0.1-0.7,0.2-0.9,0.3c-0.3,0.1-0.6,0.1-1,0.2C365.3,367,364.7,366.9,364.1,366.7z M367.8,366c0.2-0.2,0.4-0.5,0.5-1
			c0.1-0.4,0.1-1,0-1.6l-0.3-2c0,0.2-0.1,0.3-0.2,0.5c-0.1,0.2-0.4,0.4-0.7,0.8c-0.5,0.5-0.9,1-1.1,1.4c-0.3,0.4-0.3,0.9-0.3,1.4
			c0,0.3,0.2,0.5,0.4,0.7c0.2,0.1,0.5,0.2,0.8,0.2C367.3,366.3,367.6,366.2,367.8,366z"/>
		<path d="M372.7,364.8c0-0.5,0-1.1-0.1-1.6l-0.6-4.4c-0.1-0.6-0.2-1.1-0.3-1.5c-0.1-0.4-0.2-0.7-0.4-0.8c1.5-0.2,2.6-0.6,3.1-1.2
			c0,0.8,0,1.5,0.1,2.3s0.2,1.7,0.4,3l0.3,2.3c0.1,0.5,0.2,1.1,0.3,1.6c0.1,0.5,0.3,0.9,0.4,1l-3.4,0.5
			C372.7,365.7,372.7,365.4,372.7,364.8z"/>
		<path d="M377.1,364.2c0-0.5,0-1.1-0.1-1.6l-0.6-4.4c-0.1-0.6-0.2-1.1-0.3-1.5c-0.1-0.4-0.2-0.7-0.4-0.8c1.5-0.2,2.6-0.6,3.1-1.2
			c0,0.8,0,1.5,0.1,2.3s0.2,1.7,0.4,3l0.3,2.3c0.1,0.5,0.2,1.1,0.3,1.6c0.1,0.5,0.3,0.9,0.4,1l-3.4,0.5
			C377.1,365.1,377.1,364.8,377.1,364.2z"/>
		<path d="M389.3,362.6c0-0.5,0-1.1-0.1-1.6l-0.3-2l-1.4-2c-1-1.4-1.9-2.4-2.9-3c0.8,0,1.7,0,2.5-0.1c0.8-0.1,1.4-0.3,1.8-0.5
			c0,0.5,0.4,1.3,1.1,2.4l1.3,1.8l0.4-1.1c0.4-1,0.5-1.9,0.4-2.6c-0.1-0.4-0.2-0.7-0.4-0.9c0.2,0,0.6,0,1,0c0.7-0.1,1.2-0.2,1.6-0.4
			c-0.5,0.4-0.9,0.9-1.2,1.3c-0.3,0.5-0.6,1.2-1,2.1l-0.7,1.9l0.4,2.7c0.1,0.5,0.2,1.1,0.3,1.6c0.1,0.5,0.3,0.9,0.4,1l-3.4,0.5
			C389.2,363.5,389.3,363.2,389.3,362.6z"/>
		<path d="M395.3,362c-0.8-0.5-1.4-1.4-1.5-2.6c-0.2-1.2,0.1-2.2,0.8-2.9c0.7-0.8,1.6-1.2,2.9-1.4s2.3,0,3.1,0.6
			c0.8,0.5,1.4,1.4,1.5,2.6c0.2,1.2-0.1,2.2-0.8,2.9c-0.7,0.7-1.6,1.2-2.9,1.4C397.2,362.7,396.1,362.5,395.3,362z M399.4,361.2
			c0.1-0.6,0.1-1.5,0-2.6c-0.1-1-0.4-1.8-0.7-2.4c-0.3-0.6-0.8-0.9-1.2-0.8c-0.5,0.1-0.8,0.4-1,1.1c-0.2,0.7-0.2,1.5-0.1,2.5
			c0.1,1.1,0.4,1.9,0.7,2.5c0.3,0.6,0.7,0.8,1.3,0.8C399,362.2,399.3,361.9,399.4,361.2z"/>
		<path d="M404.4,361.2c-0.5-0.3-0.8-0.8-0.9-1.5l-0.3-2.2c-0.1-0.6-0.2-1.1-0.3-1.5c-0.1-0.4-0.2-0.7-0.4-0.8
			c1.5-0.2,2.6-0.6,3.1-1.2c0,0.8,0,1.5,0.1,2.3s0.2,1.7,0.4,3l0,0.2c0.1,0.4,0.2,0.7,0.3,0.9s0.3,0.3,0.5,0.3
			c0.2,0,0.5-0.2,0.7-0.5s0.4-0.7,0.6-1.2l-0.3-2c-0.1-0.6-0.2-1.1-0.3-1.5c-0.1-0.4-0.2-0.7-0.4-0.8c1.5-0.2,2.6-0.6,3.1-1.2
			c0,1,0.1,2.4,0.3,3.9l0.2,1.3c0.1,0.5,0.2,0.9,0.3,1.3c0.1,0.4,0.2,0.7,0.4,0.8c-0.9,0.1-1.5,0.2-1.9,0.2s-0.7-0.1-0.9-0.3
			c-0.2-0.2-0.4-0.5-0.4-1l0-0.1c-0.2,0.6-0.6,1-1,1.3s-0.9,0.5-1.4,0.6C405.5,361.6,404.9,361.5,404.4,361.2z"/>
		<path d="M417.4,358.9c0-0.5,0-1.1-0.1-1.6l-0.6-4.9c-0.1-0.5-0.2-1.1-0.3-1.6c-0.1-0.5-0.3-0.9-0.4-1l4.1-0.5
			c0.9-0.1,1.7-0.1,2.4,0.1c0.7,0.2,1.2,0.4,1.6,0.8c0.4,0.4,0.6,0.8,0.7,1.3c0.1,0.7-0.1,1.3-0.6,1.9c-0.5,0.6-1.3,1.1-2.3,1.5
			c0.4,0,0.8,0,1.1,0.1c0.3,0.1,0.5,0.3,0.7,0.6l0.9,1.2c0.7,1,1.3,1.6,1.7,1.9l-4.1,0.5c0-0.1,0-0.2,0-0.3c-0.1-0.6-0.4-1.3-1-2.1
			c-0.1-0.1-0.2-0.3-0.4-0.5s-0.4-0.5-0.6-0.7c-0.2-0.2-0.3-0.3-0.4-0.3l0.2,1.5c0.1,0.5,0.2,1.1,0.3,1.6c0.1,0.5,0.3,0.9,0.4,1
			l-3.4,0.5C417.4,359.8,417.4,359.4,417.4,358.9z M421.6,353.8c0.4-0.6,0.5-1.3,0.4-2c-0.1-0.4-0.2-0.8-0.5-1.2
			c-0.2-0.4-0.6-0.6-1-0.8c-0.4-0.2-0.9-0.2-1.3-0.2l-0.3,0l0.7,5.4C420.6,354.8,421.2,354.4,421.6,353.8z"/>
		<path d="M427,357.8c-0.8-0.5-1.4-1.4-1.5-2.6c-0.2-1.2,0.1-2.2,0.8-2.9c0.7-0.8,1.6-1.2,2.9-1.4s2.3,0,3.1,0.6
			c0.8,0.5,1.4,1.4,1.5,2.6c0.2,1.2-0.1,2.2-0.8,2.9c-0.7,0.7-1.6,1.2-2.9,1.4C428.9,358.5,427.8,358.3,427,357.8z M431.1,357
			c0.1-0.6,0.1-1.5,0-2.6c-0.1-1-0.4-1.8-0.7-2.4c-0.3-0.6-0.8-0.9-1.2-0.8c-0.5,0.1-0.8,0.4-1,1.1c-0.2,0.7-0.2,1.5-0.1,2.5
			c0.1,1.1,0.4,1.9,0.7,2.5c0.3,0.6,0.7,0.8,1.3,0.8C430.7,358,431,357.6,431.1,357z"/>
		<path d="M435.9,357.2c-0.6-0.2-1-0.5-1-1c0-0.3,0.1-0.7,0.4-0.9s0.8-0.5,1.4-0.6c-0.1,0.3-0.1,0.7-0.1,1c0.1,0.4,0.2,0.7,0.5,1
			c0.2,0.3,0.6,0.4,0.9,0.3c0.2,0,0.4-0.1,0.6-0.3c0.2-0.2,0.2-0.4,0.2-0.7c0-0.3-0.2-0.5-0.5-0.7c-0.3-0.2-0.7-0.5-1.4-0.7
			c-0.7-0.3-1.3-0.7-1.7-1c-0.4-0.3-0.6-0.7-0.7-1.2c-0.1-0.9,0.2-1.5,0.8-1.9s1.4-0.7,2.3-0.8c0.3,0,0.8-0.1,1.3-0.1
			c0.5,0,0.8,0,1-0.1s0.4-0.1,0.7-0.1l-1.2,2.3c-0.1-0.5-0.2-1-0.5-1.3s-0.6-0.5-1.1-0.4c-0.2,0-0.4,0.1-0.6,0.3
			c-0.1,0.2-0.2,0.4-0.2,0.6c0,0.3,0.2,0.6,0.5,0.8c0.3,0.2,0.8,0.5,1.4,0.8c0.7,0.4,1.3,0.7,1.7,1s0.6,0.7,0.7,1.1
			c0.1,0.7-0.2,1.3-0.8,1.8c-0.7,0.5-1.5,0.8-2.4,0.9C437.3,357.4,436.5,357.4,435.9,357.2z"/>
		<path d="M444.3,356c-0.6-0.2-1.2-0.6-1.5-1.1c-0.4-0.5-0.6-1.1-0.7-1.7c-0.1-0.7,0-1.3,0.2-2c0.3-0.7,0.7-1.2,1.3-1.7
			c0.6-0.5,1.4-0.8,2.3-0.9c0.8-0.1,1.5,0,2.1,0.3c0.6,0.3,1,0.7,1.1,1.4c0.1,0.4,0,0.8-0.2,1.1c-0.2,0.3-0.4,0.6-0.6,0.8
			c-0.3,0.2-0.6,0.5-1,0.8c-0.4,0.3-0.7,0.5-0.9,0.7c-0.2,0.2-0.4,0.4-0.5,0.7c0.5,0.3,1.1,0.5,1.9,0.4c0.3,0,0.5-0.1,0.7-0.2
			c0.2-0.1,0.5-0.2,0.8-0.5c-0.1,0.5-0.4,0.9-0.8,1.3c-0.5,0.4-1.1,0.7-1.9,0.8C445.7,356.3,444.9,356.2,444.3,356z M446.1,352.9
			c0.3-0.6,0.5-1.2,0.7-1.7c0.1-0.5,0.2-1,0.1-1.5c0-0.3-0.1-0.5-0.3-0.7c-0.1-0.1-0.3-0.2-0.5-0.2c-0.3,0-0.5,0.2-0.8,0.5
			s-0.4,0.7-0.5,1.2s-0.1,1.1-0.1,1.7c0.1,0.8,0.4,1.4,0.9,1.9C445.6,353.9,445.8,353.5,446.1,352.9z"/>
		<path d="M452.3,351.8l-0.1-0.5c-0.2-0.9-0.1-2,0.7-3.2c0.7-1.1,1-1.8,0.9-2.6c-0.1-0.9-0.8-1.4-1.9-1.3c-0.6,0.1-1.3,0.4-1.7,0.8
			l-0.6-1.1c0.5-0.5,1.5-0.9,2.5-1.1c2.1-0.3,3.1,0.9,3.3,2.2c0.2,1.2-0.4,2.2-1.1,3.3c-0.7,1-0.8,1.9-0.7,2.8l0.1,0.5L452.3,351.8z
			 M452.2,354.4c-0.1-0.7,0.3-1.2,0.9-1.3c0.6-0.1,1.1,0.3,1.2,1c0.1,0.6-0.3,1.2-0.9,1.2C452.8,355.4,452.3,355,452.2,354.4z"/>
	</g>
	<g>
		<path d="M327.9,421.3c0-0.5,0-1.1-0.1-1.6l-1-7.2c-0.7,0.1-1.3,0.3-1.8,0.6s-0.8,0.6-1,0.9s-0.4,0.6-0.6,1l-0.3-2.3l10-1.3
			l0.3,2.3c-0.3-0.3-0.5-0.6-0.8-0.8c-0.3-0.2-0.7-0.4-1.2-0.6c-0.6-0.2-1.2-0.2-1.9-0.1l1,7.2c0.1,0.5,0.2,1.1,0.3,1.6
			c0.1,0.5,0.3,0.9,0.4,1l-3.4,0.4C327.9,422.2,327.9,421.8,327.9,421.3z"/>
		<path d="M341.7,420.5c-0.4,0-0.7-0.1-0.9-0.4s-0.4-0.7-0.4-1.3l-0.5-3.6c-0.1-0.4-0.2-0.7-0.3-0.9c-0.2-0.2-0.3-0.3-0.5-0.3
			c-0.2,0-0.5,0.2-0.7,0.5c-0.2,0.3-0.4,0.7-0.6,1.2l0.3,2.5c0.1,0.5,0.2,1.1,0.3,1.6c0.1,0.5,0.3,0.9,0.4,1l-3.4,0.5
			c0.1-0.2,0.1-0.5,0.1-1.1c0-0.5,0-1.1-0.1-1.6l-0.6-4.4c-0.1-0.6-0.2-1.1-0.3-1.5s-0.2-0.7-0.4-0.8c1.5-0.2,2.6-0.6,3.1-1.2
			c0,0.7,0,1.4,0.1,2c0.1,0.7,0.1,1.4,0.3,2.3c0.3-0.6,0.6-1,1-1.3c0.4-0.3,0.9-0.5,1.4-0.6c0.7-0.1,1.2,0,1.7,0.4
			c0.5,0.3,0.8,0.8,0.9,1.5l0.4,3.1c0.1,0.5,0.2,0.9,0.3,1.3c0.1,0.4,0.2,0.7,0.4,0.8C342.7,420.5,342.1,420.5,341.7,420.5z"/>
		<path d="M346.2,419.5c-0.6-0.2-1.2-0.6-1.5-1.1c-0.4-0.5-0.6-1.1-0.7-1.7c-0.1-0.7,0-1.3,0.2-2c0.3-0.7,0.7-1.2,1.3-1.7
			s1.4-0.8,2.3-0.9c0.8-0.1,1.5,0,2.1,0.2c0.6,0.3,1,0.7,1.1,1.4c0.1,0.4,0,0.8-0.2,1.1c-0.2,0.3-0.4,0.6-0.6,0.8
			c-0.3,0.2-0.6,0.5-1,0.8c-0.4,0.3-0.7,0.5-0.9,0.7c-0.2,0.2-0.4,0.4-0.5,0.7c0.5,0.3,1.1,0.5,1.9,0.4c0.3,0,0.5-0.1,0.7-0.2
			c0.2-0.1,0.5-0.2,0.8-0.5c-0.1,0.5-0.4,0.9-0.8,1.3c-0.5,0.4-1.1,0.7-1.9,0.8C347.6,419.8,346.8,419.7,346.2,419.5z M348,416.4
			c0.3-0.6,0.5-1.2,0.7-1.7c0.1-0.5,0.2-1,0.1-1.5c0-0.3-0.1-0.5-0.3-0.7c-0.1-0.1-0.3-0.2-0.5-0.2c-0.3,0-0.5,0.2-0.8,0.5
			c-0.2,0.3-0.4,0.7-0.5,1.2s-0.1,1.1-0.1,1.7c0.1,0.8,0.4,1.4,0.9,1.9C347.5,417.4,347.7,417,348,416.4z"/>
		<path d="M354.3,418.4c-0.6-0.2-1.2-0.6-1.5-1.1c-0.4-0.5-0.6-1.1-0.7-1.7c-0.1-0.7,0-1.3,0.2-2c0.3-0.7,0.7-1.2,1.3-1.7
			c0.6-0.5,1.4-0.8,2.3-0.9c0.8-0.1,1.5,0,2.1,0.3c0.6,0.3,1,0.7,1.1,1.4c0.1,0.4,0,0.8-0.2,1.1c-0.2,0.3-0.4,0.6-0.6,0.8
			c-0.3,0.2-0.6,0.5-1,0.8c-0.4,0.3-0.7,0.5-0.9,0.7c-0.2,0.2-0.4,0.4-0.5,0.7c0.5,0.3,1.1,0.5,1.9,0.4c0.3,0,0.5-0.1,0.7-0.2
			c0.2-0.1,0.5-0.2,0.8-0.5c-0.1,0.5-0.4,0.9-0.8,1.3c-0.5,0.4-1.1,0.7-1.9,0.8C355.7,418.7,354.9,418.7,354.3,418.4z M356.1,415.4
			c0.3-0.6,0.5-1.2,0.7-1.7c0.1-0.5,0.2-1,0.1-1.5c0-0.3-0.1-0.5-0.3-0.7c-0.1-0.1-0.3-0.2-0.5-0.2c-0.3,0-0.5,0.2-0.8,0.5
			s-0.4,0.7-0.5,1.2c-0.1,0.5-0.1,1.1-0.1,1.7c0.1,0.8,0.4,1.4,0.9,1.9C355.6,416.4,355.8,415.9,356.1,415.4z"/>
		<path d="M366.9,417c-0.5-0.1-0.9-0.3-1.2-0.5c-0.3-0.2-0.4-0.5-0.5-0.8c-0.1-0.4,0.1-0.8,0.5-1.1c0.4-0.3,0.9-0.5,1.7-0.6
			c-0.2,0.2-0.3,0.4-0.4,0.7c-0.1,0.2-0.1,0.5-0.1,0.7c0.1,0.5,0.3,0.9,0.6,1.1c0.3,0.2,0.7,0.3,1.1,0.3c0.4-0.1,0.7-0.2,1-0.5
			c0.2-0.3,0.3-0.7,0.3-1.1c-0.1-0.4-0.3-0.8-0.7-1.1c-0.4-0.3-1-0.7-1.8-1.1c-0.7-0.4-1.2-0.7-1.6-1c-0.4-0.3-0.8-0.6-1.1-1
			s-0.5-0.8-0.5-1.2c-0.1-0.9,0.2-1.6,0.9-2.1c0.8-0.5,1.7-0.9,2.8-1c0.8-0.1,1.5-0.1,2.1,0.1c0.6,0.2,0.9,0.4,1,0.8
			c0,0.2-0.1,0.5-0.4,0.7c-0.3,0.2-0.8,0.4-1.4,0.4c0.1-0.2,0.1-0.4,0-0.7c0-0.4-0.2-0.6-0.5-0.8c-0.3-0.2-0.6-0.3-0.9-0.2
			s-0.6,0.2-0.8,0.5s-0.3,0.6-0.3,1c0.1,0.4,0.3,0.8,0.7,1.2c0.4,0.3,1.1,0.8,1.9,1.3c0.9,0.5,1.7,1,2.2,1.4
			c0.5,0.4,0.8,0.9,0.9,1.5c0.1,0.6-0.1,1.1-0.4,1.6c-0.4,0.5-0.9,0.9-1.5,1.2c-0.6,0.3-1.3,0.5-2,0.6
			C368,417.1,367.4,417.1,366.9,417z"/>
		<path d="M374.5,415.8c-0.5-0.2-0.9-0.6-0.9-1.2c-0.1-0.5,0-0.9,0.3-1.3c0.3-0.4,0.6-0.7,1-0.9c0.4-0.2,0.9-0.5,1.6-0.8
			c0.7-0.3,1.3-0.6,1.6-0.9c0.3-0.2,0.5-0.6,0.4-0.9c-0.1-0.5-0.2-0.8-0.4-1c-0.2-0.2-0.5-0.3-0.7-0.3c-0.3,0-0.5,0.2-0.7,0.5
			s-0.2,0.7-0.2,1.2c0,0.3,0.1,0.5,0.2,0.7c-0.6,0.1-1.1,0-1.5-0.1c-0.4-0.2-0.6-0.4-0.6-0.7c0-0.2,0-0.5,0.2-0.7
			c0.2-0.2,0.5-0.5,0.9-0.7c0.4-0.2,0.9-0.3,1.5-0.4c0.6-0.1,1.3-0.1,1.9,0.1c0.6,0.2,1.1,0.5,1.5,0.9c0.4,0.5,0.7,1.1,0.8,1.9
			l0,0.1c0.1,1.1,0.2,1.8,0.3,2.2c0.1,0.4,0.2,1,0.4,1.8c-0.6-0.1-1.3-0.2-2-0.1c-0.5,0.1-0.9,0.1-1.2,0.3c-0.4,0.1-0.6,0.2-0.6,0.2
			c-0.4,0.1-0.7,0.2-0.9,0.3c-0.3,0.1-0.6,0.1-1,0.2C375.7,416.1,375.1,416,374.5,415.8z M378.3,415.1c0.2-0.2,0.4-0.5,0.5-1
			s0.1-1,0-1.6l-0.3-2c0,0.2-0.1,0.3-0.2,0.5s-0.4,0.4-0.7,0.8c-0.5,0.5-0.9,1-1.1,1.4c-0.3,0.4-0.3,0.9-0.3,1.4
			c0,0.3,0.2,0.5,0.4,0.7c0.2,0.1,0.5,0.2,0.8,0.2C377.8,415.4,378,415.3,378.3,415.1z"/>
		<path d="M385,414.4c-0.7-0.2-1.2-0.6-1.7-1.1c-0.4-0.5-0.7-1.1-0.8-1.8c-0.1-0.9,0-1.7,0.4-2.3c0.4-0.6,0.9-1.1,1.6-1.5
			c0.7-0.3,1.4-0.6,2.2-0.7c0.8-0.1,1.4-0.1,2,0.1c0.6,0.2,0.9,0.4,0.9,0.8c0,0.2-0.1,0.5-0.4,0.7c-0.3,0.2-0.8,0.4-1.4,0.4
			c0.1-0.2,0.1-0.4,0-0.7c-0.1-0.4-0.2-0.7-0.4-0.9c-0.2-0.2-0.5-0.3-0.7-0.2c-0.3,0-0.6,0.2-0.9,0.5c-0.3,0.3-0.5,0.7-0.6,1.2
			c-0.1,0.5-0.2,1.1-0.1,1.7c0.1,0.8,0.4,1.5,0.9,2c0.5,0.5,1.2,0.7,2.1,0.6c0.4-0.1,0.8-0.2,1.1-0.4c0.3-0.2,0.5-0.4,0.7-0.7
			c-0.1,0.7-0.4,1.3-1,1.7c-0.5,0.4-1.2,0.7-1.9,0.8C386.3,414.7,385.6,414.6,385,414.4z"/>
		<path d="M391.5,413.1c0-0.4,0-0.8-0.1-1.4l-0.3-2.1c-0.1-0.6-0.2-1.1-0.3-1.5s-0.2-0.7-0.4-0.8c1.5-0.2,2.6-0.6,3.1-1.2
			c0,0.3,0,0.7,0,1.2c0.2-0.5,0.6-0.9,1-1.1c0.4-0.3,0.9-0.4,1.4-0.5c0.5-0.1,0.9,0,1.3,0.1c0.4,0.1,0.7,0.3,0.9,0.5
			c0.2,0.2,0.4,0.4,0.4,0.7c0,0.3-0.1,0.6-0.4,0.9s-0.8,0.4-1.4,0.5c0.1-0.2,0.1-0.5,0-0.9c0-0.3-0.2-0.6-0.5-0.9
			c-0.3-0.3-0.6-0.4-1-0.3c-0.4,0.1-0.8,0.3-1.1,0.6c-0.3,0.4-0.6,0.8-0.7,1.3l0.4,3.2c0.1,1.1,0.3,1.8,0.6,2.1l-3.4,0.5
			C391.5,413.7,391.5,413.4,391.5,413.1z"/>
		<path d="M401.6,412.1c-0.6-0.2-1.2-0.6-1.5-1.1c-0.4-0.5-0.6-1.1-0.7-1.7c-0.1-0.7,0-1.3,0.2-2c0.3-0.7,0.7-1.2,1.3-1.7
			s1.4-0.8,2.3-0.9c0.8-0.1,1.5,0,2.1,0.2c0.6,0.3,1,0.7,1.1,1.4c0.1,0.4,0,0.8-0.2,1.1c-0.2,0.3-0.4,0.6-0.6,0.8
			c-0.3,0.2-0.6,0.5-1,0.8c-0.4,0.3-0.7,0.5-0.9,0.7c-0.2,0.2-0.4,0.4-0.5,0.7c0.5,0.3,1.1,0.5,1.9,0.4c0.3,0,0.5-0.1,0.7-0.2
			c0.2-0.1,0.5-0.2,0.8-0.5c-0.1,0.5-0.4,0.9-0.8,1.3c-0.5,0.4-1.1,0.7-1.9,0.8C403,412.4,402.2,412.4,401.6,412.1z M403.4,409.1
			c0.3-0.6,0.5-1.2,0.7-1.7c0.1-0.5,0.2-1,0.1-1.5c0-0.3-0.1-0.5-0.3-0.7c-0.1-0.1-0.3-0.2-0.5-0.2c-0.3,0-0.5,0.2-0.8,0.5
			c-0.2,0.3-0.4,0.7-0.5,1.2c-0.1,0.5-0.1,1.1-0.1,1.7c0.1,0.8,0.4,1.4,0.9,1.9C402.9,410.1,403.1,409.7,403.4,409.1z"/>
		<path d="M409.7,411c-0.7-0.3-1.2-0.7-1.6-1.2c-0.4-0.5-0.6-1.1-0.7-1.8c-0.1-0.6,0-1.2,0.2-1.8c0.2-0.6,0.6-1.1,1.2-1.5
			c0.5-0.4,1.2-0.7,2.1-0.8c0.7-0.1,1.3,0,1.7,0.1c-0.1-0.6-0.2-1.1-0.3-1.5c-0.1-0.4-0.2-0.7-0.4-0.8c1.5-0.2,2.6-0.6,3.1-1.2
			c0,0.8,0,1.5,0.1,2.3c0.1,0.7,0.2,1.7,0.4,3l0,0.3c0.2,1.2,0.3,2.1,0.4,2.6c0.1,0.6,0.2,1.2,0.4,2c-0.5-0.1-1-0.1-1.4-0.1
			c-0.2,0-0.5,0.1-0.8,0.2c-0.3,0.1-0.4,0.1-0.5,0.2c-0.6,0.2-1.1,0.3-1.5,0.4C411.2,411.4,410.4,411.3,409.7,411z M413,410.2
			c0.2-0.5,0.2-1.1,0.1-1.9l-0.5-4c-0.3-0.2-0.6-0.3-1-0.2c-0.6,0.1-1.1,0.5-1.3,1.2c-0.2,0.7-0.3,1.6-0.2,2.6
			c0.1,0.9,0.4,1.6,0.7,2.3c0.4,0.6,0.8,0.9,1.3,0.8C412.5,410.9,412.8,410.7,413,410.2z"/>
		<path d="M423.5,409.5c-0.5-0.1-0.9-0.3-1.2-0.5s-0.4-0.5-0.5-0.8c-0.1-0.4,0.1-0.8,0.5-1.1c0.4-0.3,0.9-0.5,1.7-0.6
			c-0.2,0.2-0.3,0.4-0.4,0.7c-0.1,0.2-0.1,0.5-0.1,0.7c0.1,0.5,0.3,0.9,0.6,1.1s0.7,0.3,1.1,0.3c0.4-0.1,0.7-0.2,1-0.5
			s0.3-0.7,0.3-1.1c-0.1-0.4-0.3-0.8-0.7-1.1c-0.4-0.3-1-0.7-1.8-1.1c-0.7-0.4-1.2-0.7-1.6-1c-0.4-0.3-0.8-0.6-1.1-1
			c-0.3-0.4-0.5-0.8-0.5-1.2c-0.1-0.9,0.2-1.6,0.9-2.1c0.8-0.5,1.7-0.9,2.8-1c0.8-0.1,1.5-0.1,2.1,0.1c0.6,0.1,0.9,0.4,1,0.8
			c0,0.2-0.1,0.5-0.4,0.7c-0.3,0.2-0.8,0.4-1.4,0.4c0.1-0.2,0.1-0.4,0-0.7c0-0.4-0.2-0.6-0.5-0.8c-0.3-0.2-0.6-0.3-0.9-0.2
			c-0.3,0-0.6,0.2-0.8,0.5c-0.2,0.3-0.3,0.6-0.3,1c0.1,0.4,0.3,0.8,0.7,1.2c0.4,0.3,1.1,0.8,1.9,1.3c0.9,0.5,1.7,1,2.2,1.4
			c0.5,0.4,0.8,0.9,0.9,1.5c0.1,0.6-0.1,1.1-0.4,1.6c-0.4,0.5-0.9,0.9-1.5,1.2c-0.6,0.3-1.3,0.5-2,0.6
			C424.6,409.6,424,409.6,423.5,409.5z"/>
		<path d="M431.5,407.7c-0.8-0.5-1.4-1.4-1.5-2.6c-0.2-1.2,0.1-2.2,0.8-2.9c0.7-0.7,1.6-1.2,2.9-1.4s2.3,0,3.1,0.6
			c0.8,0.5,1.4,1.4,1.5,2.6c0.2,1.2-0.1,2.2-0.8,2.9s-1.6,1.2-2.9,1.4S432.4,408.2,431.5,407.7z M435.7,406.9c0.1-0.6,0.1-1.5,0-2.6
			c-0.1-1-0.4-1.8-0.7-2.4c-0.3-0.6-0.8-0.9-1.2-0.8c-0.5,0.1-0.8,0.4-1,1.1c-0.2,0.7-0.2,1.5-0.1,2.5c0.1,1.1,0.4,1.9,0.7,2.5
			c0.3,0.6,0.7,0.8,1.3,0.8C435.2,407.9,435.5,407.5,435.7,406.9z"/>
		<path d="M440.7,406.9c-0.5-0.3-0.8-0.8-0.9-1.5l-0.3-2.2c-0.1-0.6-0.2-1.1-0.3-1.5s-0.2-0.7-0.4-0.8c1.5-0.2,2.6-0.6,3.1-1.2
			c0,0.8,0,1.5,0.1,2.3c0.1,0.7,0.2,1.7,0.4,3l0,0.2c0.1,0.4,0.2,0.7,0.3,0.9c0.2,0.2,0.3,0.3,0.5,0.3c0.2,0,0.5-0.2,0.7-0.5
			c0.2-0.3,0.4-0.7,0.6-1.2l-0.3-2c-0.1-0.6-0.2-1.1-0.3-1.5c-0.1-0.4-0.2-0.7-0.4-0.8c1.5-0.2,2.6-0.6,3.1-1.2c0,1,0.1,2.4,0.3,3.9
			l0.2,1.3c0.1,0.5,0.2,0.9,0.3,1.3c0.1,0.4,0.2,0.7,0.4,0.8c-0.9,0.1-1.5,0.2-1.9,0.2c-0.4,0-0.7-0.1-0.9-0.3
			c-0.2-0.2-0.4-0.5-0.4-1l0-0.1c-0.2,0.6-0.6,1-1,1.3s-0.9,0.5-1.4,0.6C441.7,407.3,441.2,407.2,440.7,406.9z"/>
		<path d="M449,405.2c0-0.5,0-1.1-0.1-1.6l-0.6-4.4c-0.1-0.6-0.2-1.1-0.3-1.5c-0.1-0.4-0.2-0.7-0.4-0.8c1.5-0.2,2.6-0.6,3.1-1.2
			c0,0.8,0,1.5,0.1,2.3s0.2,1.7,0.4,3l0.3,2.3c0.1,0.5,0.2,1.1,0.3,1.6c0.1,0.5,0.3,0.9,0.4,1l-3.4,0.5
			C449,406.1,449,405.7,449,405.2z"/>
		<path d="M453.9,405.3c-0.6-0.2-1-0.5-1-1c0-0.3,0.1-0.7,0.4-0.9c0.3-0.3,0.8-0.5,1.4-0.6c-0.1,0.3-0.1,0.7-0.1,1
			c0.1,0.4,0.2,0.7,0.5,1c0.2,0.3,0.6,0.4,0.9,0.3c0.2,0,0.4-0.1,0.6-0.3c0.2-0.2,0.2-0.4,0.2-0.7c0-0.3-0.2-0.5-0.5-0.7
			c-0.3-0.2-0.7-0.5-1.4-0.7c-0.7-0.3-1.3-0.7-1.7-1c-0.4-0.3-0.6-0.7-0.7-1.2c-0.1-0.9,0.2-1.5,0.8-1.9c0.7-0.4,1.4-0.7,2.3-0.8
			c0.3,0,0.8-0.1,1.3-0.1c0.5,0,0.8,0,1-0.1c0.2,0,0.4-0.1,0.7-0.1l-1.2,2.3c-0.1-0.5-0.2-1-0.5-1.3c-0.3-0.4-0.6-0.5-1.1-0.4
			c-0.2,0-0.4,0.1-0.6,0.3c-0.1,0.2-0.2,0.4-0.2,0.6c0,0.3,0.2,0.6,0.5,0.8c0.3,0.2,0.8,0.5,1.4,0.8c0.7,0.4,1.3,0.7,1.7,1
			c0.4,0.3,0.6,0.7,0.7,1.1c0.1,0.7-0.2,1.3-0.8,1.8c-0.7,0.5-1.5,0.8-2.4,0.9C455.2,405.5,454.5,405.5,453.9,405.3z"/>
	</g>
</g>
<g id="Layer_3">
	<g>
		<g>
			
				<image style="overflow:visible;enable-background:new    ;" width="189" height="508" xlink:href="86C38267.png"  transform="matrix(7.967619e-02 0 0 7.967619e-02 392.0276 351.9103)">
			</image>
		</g>
	</g>
</g>
</svg>
